<svg width="32" height="32" viewBox="0 0 32 32" fill="none" xmlns="http://www.w3.org/2000/svg">
  <!-- Fondo corporativo con esquinas redondeadas -->
  <rect width="32" height="32" rx="8" fill="#2F5D3A"/>
  
  <g fill="#F5E9DA">
    <!-- Letra A - Geométrica limpia -->
    <path 
      d="M5 24V12L9 6h2.5l4 6v12h-2.8V17H7.8v7H5zm2.8-9.5h4.8v-2.4L10.25 9.5h-0.8L7.8 12.1v2.4z"
    />
    
    <!-- Alfil de ajedrez - Minimalista -->
    <g>
      <!-- Corona -->
      <circle cx="16" cy="7" r="1.2" />
      
      <!-- Cuerpo geométrico -->
      <rect x="14.8" y="8.8" width="2.4" height="9.6" rx="1.2" />
      
      <!-- Detalles -->
      <rect x="15.2" y="12" width="1.6" height="0.8" />
      <rect x="15.2" y="14.4" width="1.6" height="0.8" />
      
      <!-- Base -->
      <rect x="13.6" y="19.2" width="4.8" height="1.6" rx="0.8" />
      <rect x="13.2" y="21.2" width="5.6" height="1.2" rx="0.6" />
    </g>
    
    <!-- Letra F - Sans-serif limpio -->
    <path 
      d="M21 24V6h7.2v2.8h-4.4v4h4v2.8h-4V24H21z"
    />
  </g>
</svg>